#!OML:ASF Y:\EmotionMaleHayes\Project 1\Capture day 1\Session 1\Male1.ASF
:FULLY-SPECIFIED
:DEGREES
435
root -13.3659 16.2634 -16.4593 247.609 85.3622 246.707
lowerback 4.80427 4.68913 3.68437
upperback 1.08601 6.44577 -0.0705656
thorax -1.14925 3.22146 -2.46708
lowerneck -18.7832 -8.68846 -6.79577
upperneck 21.2601 -12.4043 9.62318
head 11.0466 -4.99917 2.66614
rclavicle -9.93923e-015 1.15295e-014
rhumerus -18.8827 19.2897 -86.3977
rradius 48.6803
rwrist -3.37172
rhand -11.7841 -30.6269
rfingers 7.12502
rthumb 14.265 -60.117
lclavicle -9.93923e-015 1.15295e-014
lhumerus -48.4474 2.39576 77.6605
lradius 27.793
lwrist -11.5532
lhand -10.5695 -22.3841
lfingers 7.12502
lthumb 15.4352 7.01961
rfemur 21.2926 7.78085 33.1162
rtibia 14.8033
rfoot -16.0645 18.6626
rtoes 34.449
lfemur -28.1141 -5.30553 -7.05137
ltibia 18.0873
lfoot 1.92322 3.94884
ltoes -2.11422
436
root -13.2095 16.2815 -16.4899 247.533 86.1725 246.649
lowerback 4.84892 4.71744 2.90609
upperback 1.07818 6.44021 -0.380617
thorax -1.23238 3.21824 -2.36264
lowerneck -18.88 -8.7737 -6.64102
upperneck 21.4735 -12.5737 9.57539
head 11.1459 -5.05606 2.59299
rclavicle -1.61513e-014 1.59028e-015
rhumerus -19.503 18.8525 -86.8285
rradius 48.2079
rwrist -3.48665
rhand -13.2437 -29.7868
rfingers 7.12502
rthumb 12.8583 -59.3707
lclavicle -1.61513e-014 1.59028e-015
lhumerus -47.8153 2.12361 77.6803
lradius 27.7231
lwrist -11.9694
lhand -10.1529 -21.6916
lfingers 7.12502
lthumb 15.8364 7.68077
rfemur 21.5283 8.42385 32.5215
rtibia 15.6082
rfoot -15.3733 17.9846
rtoes 33.8797
lfemur -27.8785 -5.18684 -8.01985
ltibia 19.056
lfoot 1.4203 4.38801
ltoes -2.67396
437
root -13.049 16.3022 -16.5139 249.456 86.6024 248.779
lowerback 4.99894 4.69731 2.39233
upperback 1.11139 6.38976 -0.49824
thorax -1.32733 3.19326 -2.21208
lowerneck -18.698 -8.75971 -6.52149
upperneck 21.4451 -12.5986 9.60012
head 11.0967 -5.06067 2.58489
rclavicle 1.83876e-015 7.95139e-016
rhumerus -20.1658 18.4178 -87.2384
rradius 47.7857
rwrist -3.5282
rhand -13.5006 -29.715
rfingers 7.12502
rthumb 12.6106 -59.3144
lclavicle 1.83876e-015 7.95139e-016
lhumerus -47.2935 2.04172 77.6095
lradius 27.6645
lwrist -12.5561
lhand -9.97057 -21.2552
lfingers 7.12502
lthumb 16.012 8.10313
rfemur 21.8502 8.96707 32.44
rtibia 16.4617
rfoot -14.5734 17.3192
rtoes 33.4274
lfemur -27.2856 -4.81392 -8.56575
ltibia 19.6085
lfoot 1.38087 4.25695
ltoes -3.8668
438
root -12.8892 16.3268 -16.5366 252.471 86.814 252.02
lowerback 5.18159 4.6713 2.03535
upperback 1.1106 6.34075 -0.493036
thorax -1.47163 3.16746 -2.02691
lowerneck -18.3616 -8.76497 -6.58664
upperneck 21.3716 -12.6304 9.7554
head 11.0256 -5.07444 2.65697
rclavicle 2.27608e-014 1.19271e-015
rhumerus -20.9334 18.0689 -87.531
rradius 47.4324
rwrist -3.49173
rhand -13.5882 -29.8155
rfingers 7.12502
rthumb 12.5262 -59.42
lclavicle 2.27608e-014 1.19271e-015
lhumerus -46.7722 2.15482 77.4716
lradius 27.3584
lwrist -13.2138
lhand -10.1447 -21.8388
lfingers 7.12502
lthumb 15.8443 7.53291
rfemur 22.0468 9.27688 32.4671
rtibia 17.3966
rfoot -13.4837 16.8003
rtoes 33.311
lfemur -26.5417 -4.3168 -8.89044
ltibia 19.864
lfoot 1.72707 3.82221
ltoes -3.18387
439
root -12.7287 16.3522 -16.5679 253.292 87.3604 252.895
lowerback 5.16633 4.62693 1.55058
upperback 1.10226 6.25205 -0.704527
thorax -1.50403 3.12443 -1.97158
lowerneck -18.5261 -8.88953 -6.63834
upperneck 21.7957 -12.8269 9.76432
head 11.2382 -5.14223 2.63138
rclavicle -4.95968e-014 5.1684e-015
rhumerus -21.8901 17.7911 -87.9201
rradius 47.319
rwrist -3.57557
rhand -13.7982 -30.1618
rfingers 7.12502
rthumb 12.3236 -59.7786
lclavicle -4.95968e-014 5.1684e-015
lhumerus -46.2205 1.86217 77.5004
lradius 27.2361
lwrist -13.2848
lhand -10.3188 -22.2312
lfingers 7.12502
lthumb 15.6766 7.15371
rfemur 22.0993 9.39531 31.8824
rtibia 18.3115
rfoot -12.178 16.2642
rtoes 32.2487
lfemur -25.9013 -3.94025 -9.74615
ltibia 20.0891
lfoot 1.61405 3.3086
ltoes -2.88112
440
root -12.5614 16.3789 -16.6076 252.453 88.0874 252.081
lowerback 5.06673 4.57395 0.963327
upperback 1.10307 6.14612 -0.971639
thorax -1.48458 3.07437 -1.90728
lowerneck -19.0456 -9.03418 -6.6541
upperneck 22.5215 -13.0336 9.5995
head 11.6194 -5.20845 2.52378
rclavicle 5.48149e-014 -1.19271e-015
rhumerus -22.9864 17.4236 -88.3252
rradius 47.2721
rwrist -3.67957
rhand -13.8701 -30.5898
rfingers 7.12502
rthumb 12.2544 -60.2107
lclavicle 5.48149e-014 -1.19271e-015
lhumerus -45.7316 1.4289 77.667
lradius 27.2992
lwrist -13.2978
lhand -10.4557 -22.1208
lfingers 7.12502
lthumb 15.5448 7.27443
rfemur 22.1913 9.42633 30.978
rtibia 19.1364
rfoot -10.4844 15.7823
rtoes 31.6617
lfemur -25.1632 -3.92869 -10.8868
ltibia 20.2237
lfoot 1.17073 3.04501
ltoes -3.97519
441
root -12.3941 16.4063 -16.6415 254.978 88.7074 254.777
lowerback 5.06142 4.53502 0.431718
upperback 1.17001 6.06651 -1.16151
thorax -1.45019 3.03822 -1.80107
lowerneck -19.1258 -9.09674 -6.74511
upperneck 22.6869 -13.1515 9.75933
head 11.7304 -5.23806 2.57397
rclavicle -1.4561e-014 4.37326e-015
rhumerus -23.8056 17.1047 -88.6657
rradius 46.8823
rwrist -4.02066
rhand -14.0979 -30.8458
rfingers 7.12502
rthumb 12.0347 -60.4797
lclavicle -1.4561e-014 4.37326e-015
lhumerus -45.1235 1.25397 77.7214
lradius 27.2507
lwrist -13.5874
lhand -10.6473 -22.0056
lfingers 7.12502
lthumb 15.3602 7.4039
rfemur 22.3533 9.45972 30.2301
rtibia 20.0236
rfoot -8.66965 15.2958
rtoes 33.1284
lfemur -24.1131 -4.00186 -11.805
ltibia 20.0343
lfoot 0.719909 3.15234
ltoes -3.23968
442
root -12.2314 16.433 -16.6666 263.757 89.024 263.793
lowerback 5.18263 4.48336 0.107613
upperback 1.21139 5.98102 -1.26244
thorax -1.50001 2.99717 -1.73016
lowerneck -18.9179 -9.08606 -6.67109
upperneck 22.6396 -13.1773 9.82004
head 11.6743 -5.24385 2.58713
rclavicle 3.58806e-014 -7.15625e-015
rhumerus -24.5514 16.8592 -89.0331
rradius 46.3245
rwrist -4.39865
rhand -14.4581 -30.9035
rfingers 7.12502
rthumb 11.6874 -60.5575
lclavicle 3.58806e-014 -7.15625e-015
lhumerus -44.5473 0.992359 77.8126
lradius 27.3311
lwrist -13.5474
lhand -10.6626 -21.564
lfingers 7.12502
lthumb 15.3455 7.84658
rfemur 22.4162 9.45434 29.8458
rtibia 21.1088
rfoot -7.13985 14.8153
rtoes 34.6005
lfemur -22.9848 -3.97165 -12.3137
ltibia 19.6926
lfoot 0.343432 3.2622
ltoes -2.00941
443
root -12.0699 16.4628 -16.6945 284.494 89.372 284.706
lowerback 5.26839 4.44158 -0.272867
upperback 1.21424 5.90405 -1.39291
thorax -1.57142 2.96027 -1.65758
lowerneck -18.9288 -9.03059 -6.43956
upperneck 22.969 -13.1177 9.5311
head 11.754 -5.21878 2.4575
rclavicle -1.6847e-014 -1.35174e-014
rhumerus -25.3374 16.2701 -89.3941
rradius 45.6866
rwrist -4.14277
rhand -14.2482 -30.865
rfingers 7.12502
rthumb 11.8897 -60.5075
lclavicle -1.6847e-014 -1.35174e-014
lhumerus -44.1003 0.457945 78.0395
lradius 27.5641
lwrist -13.2414
lhand -10.8707 -21.1226
lfingers 7.12502
lthumb 15.145 8.30327
rfemur 22.3023 9.3495 29.2124
rtibia 22.3132
rfoot -5.6 14.4877
rtoes 34.43
lfemur -21.9177 -3.90016 -12.9469
ltibia 19.4438
lfoot -0.212503 3.26514
ltoes -0.836711
444
root -11.913 16.4983 -16.7263 352.93 89.5169 353.268
lowerback 5.32899 4.40718 -0.788731
upperback 1.22246 5.82946 -1.5418
thorax -1.63407 2.92552 -1.52698
lowerneck -19.2417 -9.04529 -6.37231
upperneck 23.6536 -13.1097 9.16829
head 12.0417 -5.21601 2.30789
rclavicle 1.1778e-014 -3.97569e-016
rhumerus -26.0592 15.4479 -89.6215
rradius 45.037
rwrist -3.66445
rhand -13.6871 -31.298
rfingers 7.12502
rthumb 12.4308 -60.9084
lclavicle 1.1778e-014 -3.97569e-016
lhumerus -43.6043 0.0471819 78.3119
lradius 27.6878
lwrist -13.1006
lhand -11.2604 -20.9711
lfingers 7.12502
lthumb 14.7696 8.48261
rfemur 21.9384 9.08244 28.1566
rtibia 23.7586
rfoot -3.93294 14.2242
rtoes 32.9515
lfemur -20.8531 -3.76351 -13.8148
ltibia 19.154
lfoot -0.762123 3.22494
ltoes -0.619968
445
root -11.76 16.5328 -16.7599 400.066 88.9787 400.464
lowerback 5.26678 4.34685 -1.38493
upperback 1.27298 5.72013 -1.76061
thorax -1.58497 2.87502 -1.40821
lowerneck -19.3005 -9.0183 -6.48952
upperneck 23.7629 -13.0665 9.24919
head 12.1079 -5.19079 2.36303
rclavicle 0 -8.34896e-015
rhumerus -26.6532 14.8694 -89.8232
rradius 44.3863
rwrist -3.78672
rhand -13.2496 -32.314
rfingers 7.12502
rthumb 12.8526 -61.8983
lclavicle 0 -8.34896e-015
lhumerus -42.8172 -0.107512 78.4849
lradius 27.5778
lwrist -13.2563
lhand -11.5892 -20.9353
lfingers 7.12502
lthumb 14.4528 8.54141
rfemur 21.1969 9.17718 27.1967
rtibia 25.7184
rfoot -2.37405 13.5345
rtoes 32.3899
lfemur -19.8402 -3.68267 -14.8818
ltibia 18.7618
lfoot -1.20265 3.1809
ltoes -2.42
446
root -11.6056 16.563 -16.795 413.781 88.2194 414.233
lowerback 5.07622 4.27029 -1.98525
upperback 1.3795 5.59835 -2.04847
thorax -1.39882 2.8189 -1.34301
lowerneck -19.4107 -9.01319 -6.41236
upperneck 24.0164 -13.0848 9.1875
head 12.2194 -5.18505 2.32253
rclavicle -1.56543e-014 1.70955e-014
rhumerus -27.0411 14.5428 -90.1191
rradius 43.2935
rwrist -4.12815
rhand -13.0327 -32.9365
rfingers 7.12502
rthumb 13.0617 -62.5075
lclavicle -1.56543e-014 1.70955e-014
lhumerus -41.8702 -0.372222 78.5806
lradius 27.4418
lwrist -13.3322
lhand -11.8593 -20.7966
lfingers 7.12502
lthumb 14.1926 8.69859
rfemur 20.5086 8.91811 25.84
rtibia 27.4493
rfoot -0.349302 13.2752
rtoes 32.3977
lfemur -18.8726 -3.54346 -16.0697
ltibia 18.4292
lfoot -1.58233 3.01393
ltoes -3.81053
447
root -11.4509 16.5908 -16.8281 415.567 87.72 416.159
lowerback 5.06104 4.1882 -2.28481
upperback 1.40016 5.47706 -2.2435
thorax -1.37844 2.76101 -1.36773
lowerneck -19.2868 -9.09398 -6.39258
upperneck 24.262 -13.2293 9.17956
head 12.3027 -5.24035 2.29626
rclavicle -2.10215e-014 -3.97569e-015
rhumerus -27.5034 14.234 -90.4661
rradius 41.9064
rwrist -3.96195
rhand -12.9323 -32.8446
rfingers 7.12502
rthumb 13.1585 -62.4094
lclavicle -2.10215e-014 -3.97569e-015
lhumerus -41.2374 -1.00301 78.7595
lradius 27.5574
lwrist -12.9372
lhand -11.9313 -20.5353
lfingers 7.12502
lthumb 14.1232 8.96467
rfemur 19.9122 8.54839 24.8831
rtibia 29.124
rfoot 1.75093 12.8568
rtoes 31.1507
lfemur -17.8864 -3.3055 -16.854
ltibia 18.1969
lfoot -2.05151 2.81963
ltoes -3.79064
